<?xml version="1.0" standalone="no"?>
<!DOCTYPE svg PUBLIC "-//W3C//DTD SVG 20010904//EN"
 "http://www.w3.org/TR/2001/REC-SVG-20010904/DTD/svg10.dtd">
<svg version="1.0" xmlns="http://www.w3.org/2000/svg"
 width="64.000000pt" height="64.000000pt" viewBox="0 0 64.000000 64.000000"
 preserveAspectRatio="xMidYMid meet">

<g transform="translate(0.000000,64.000000) scale(0.100000,-0.100000)"
fill="#000000" stroke="none">
<path d="M111 563 c-38 -30 -61 -77 -61 -125 0 -40 30 -106 59 -132 18 -17 21
-30 21 -101 0 -69 4 -88 23 -116 33 -50 78 -69 167 -69 85 0 131 18 164 63 17
22 22 47 24 115 3 75 7 90 27 112 51 54 67 131 41 194 -16 39 -77 89 -102 84
-23 -4 -29 -82 -8 -99 18 -15 18 -63 -1 -99 -14 -26 -19 -29 -48 -22 -17 4
-61 7 -97 7 -36 0 -80 -3 -97 -7 -29 -7 -34 -4 -48 22 -19 36 -19 84 -1 99 9
7 13 28 12 54 -3 53 -26 59 -75 20z m44 -12 c-3 -11 -1 -22 5 -26 7 -4 5 -14
-5 -28 -21 -30 -19 -86 5 -125 19 -31 23 -32 58 -25 48 10 156 10 204 0 35 -7
39 -6 58 25 24 39 26 95 5 125 -10 14 -12 24 -5 28 6 4 8 16 4 28 -6 20 -6 21
17 6 82 -54 91 -159 19 -234 -26 -28 -28 -37 -32 -122 -3 -89 -4 -94 -36 -125
-32 -33 -33 -33 -132 -33 -99 0 -100 0 -132 33 -32 31 -33 36 -36 125 -4 85
-6 94 -32 122 -68 72 -66 168 6 224 33 26 37 26 29 2z"/>
<path d="M197 212 c-33 -36 -10 -102 35 -102 42 0 63 73 30 103 -24 22 -45 21
-65 -1z"/>
<path d="M377 212 c-33 -36 -10 -102 35 -102 42 0 63 73 30 103 -24 22 -45 21
-65 -1z"/>
<path d="M260 431 c0 -12 5 -21 10 -21 6 0 10 6 10 14 0 8 -4 18 -10 21 -5 3
-10 -3 -10 -14z"/>
<path d="M310 430 c0 -11 5 -20 10 -20 6 0 10 9 10 20 0 11 -4 20 -10 20 -5 0
-10 -9 -10 -20z"/>
<path d="M365 437 c-4 -10 -5 -21 -1 -24 10 -10 18 4 13 24 -4 17 -4 17 -12 0z"/>
<path d="M210 420 c0 -11 5 -20 10 -20 6 0 10 9 10 20 0 11 -4 20 -10 20 -5 0
-10 -9 -10 -20z"/>
<path d="M410 419 c0 -11 5 -17 10 -14 6 3 10 13 10 21 0 8 -4 14 -10 14 -5 0
-10 -9 -10 -21z"/>
</g>
</svg>
